<svg viewBox="0 0 56 56"  xmlns="http://www.w3.org/2000/svg">
    <path fill="var(--dark-2)" d="M28 56C25.4167 56 22.9375 55.6667 20.5625 55C18.1875 54.3333 15.9583 53.3958 13.875 52.1875C11.7917 50.9792 9.90625 49.5208 8.21875 47.8125C6.53125 46.1042 5.07292 44.2188 3.84375 42.1562C2.61458 40.0938 1.66667 37.8646 1 35.4688C0.333333 33.0729 0 30.5833 0 28C0 25.4167 0.333333 22.9375 1 20.5625C1.66667 18.1875 2.60417 15.9583 3.8125 13.875C5.02083 11.7917 6.47917 9.90625 8.1875 8.21875C9.89583 6.53125 11.7812 5.07292 13.8438 3.84375C15.9062 2.61458 18.1354 1.66667 20.5312 1C22.9271 0.333333 25.4167 0 28 0C30.5833 0 33.0625 0.333333 35.4375 1C37.8125 1.66667 40.0417 2.60417 42.125 3.8125C44.2083 5.02083 46.0938 6.47917 47.7812 8.1875C49.4688 9.89583 50.9271 11.7812 52.1562 13.8438C53.3854 15.9062 54.3333 18.1354 55 20.5312C55.6667 22.9271 56 25.4167 56 28C56 30.5833 55.6667 33.0625 55 35.4375C54.3333 37.8125 53.3958 40.0417 52.1875 42.125C50.9792 44.2083 49.5208 46.0938 47.8125 47.7812C46.1042 49.4688 44.2188 50.9271 42.1562 52.1562C40.0938 53.3854 37.8646 54.3333 35.4688 55C33.0729 55.6667 30.5833 56 28 56ZM28 4C24.6875 4 21.5833 4.625 18.6875 5.875C15.7917 7.125 13.25 8.84375 11.0625 11.0312C8.875 13.2188 7.15625 15.7604 5.90625 18.6562C4.65625 21.5521 4.02083 24.6667 4 28C4 31.3125 4.625 34.4167 5.875 37.3125C7.125 40.2083 8.84375 42.75 11.0312 44.9375C13.2188 47.125 15.7604 48.8438 18.6562 50.0938C21.5521 51.3438 24.6667 51.9792 28 52C31.3125 52 34.4167 51.375 37.3125 50.125C40.2083 48.875 42.75 47.1562 44.9375 44.9688C47.125 42.7812 48.8438 40.2396 50.0938 37.3438C51.3438 34.4479 51.9792 31.3333 52 28C52 24.6875 51.375 21.5833 50.125 18.6875C48.875 15.7917 47.1562 13.25 44.9688 11.0625C42.7812 8.875 40.2396 7.15625 37.3438 5.90625C34.4479 4.65625 31.3333 4.02083 28 4ZM28 28V12H24V32H40V28H28Z"/>
</svg>
