<svg viewBox="0 0 21 16" fill="none" xmlns="http://www.w3.org/2000/svg">
<path d="M17.0231 1.64159C15.7262 1.04641 14.3578 0.621629 12.9519 0.377821C12.9391 0.375676 12.9261 0.377529 12.9144 0.383125C12.9028 0.388721 12.8932 0.397785 12.8869 0.409072C12.7106 0.721576 12.5156 1.13033 12.3794 1.45034C10.8639 1.22034 9.3224 1.22034 7.80693 1.45034C7.65494 1.09386 7.48301 0.746218 7.29193 0.409072C7.28552 0.397909 7.27588 0.388949 7.26428 0.383371C7.25267 0.377793 7.23966 0.375858 7.22693 0.377821C5.8207 0.620325 4.45196 1.04533 3.15573 1.64159C3.14463 1.64582 3.13536 1.65378 3.12948 1.66409C0.537004 5.53789 -0.174239 9.3167 0.174507 13.048C0.175757 13.0655 0.187007 13.083 0.200757 13.0942C1.7104 14.2125 3.39896 15.0663 5.19445 15.6193C5.20713 15.6233 5.22075 15.6231 5.23334 15.6189C5.24593 15.6146 5.25683 15.6064 5.26445 15.5955C5.64945 15.0705 5.99195 14.5168 6.28694 13.9343C6.29309 13.9223 6.2952 13.9086 6.29294 13.8953C6.29069 13.882 6.2842 13.8698 6.27444 13.8605C6.26798 13.8544 6.26032 13.8497 6.25194 13.8468C5.7134 13.6398 5.19182 13.3911 4.69196 13.103C4.678 13.0951 4.66761 13.0821 4.66296 13.0667C4.65831 13.0514 4.65974 13.0348 4.66696 13.0205C4.67121 13.0112 4.67764 13.003 4.68571 12.9967C4.79071 12.918 4.89571 12.8355 4.99571 12.753C5.00454 12.7459 5.01514 12.7413 5.02637 12.7398C5.0376 12.7382 5.04904 12.7398 5.05946 12.7442C8.33317 14.2393 11.8769 14.2393 15.1106 12.7442C15.1214 12.7396 15.1333 12.7379 15.1449 12.7395C15.1566 12.741 15.1676 12.7457 15.1768 12.753C15.2768 12.8355 15.3818 12.918 15.4868 12.9967C15.4954 13.003 15.5022 13.0112 15.5067 13.0207C15.5113 13.0302 15.5134 13.0407 15.5129 13.0512C15.5124 13.0617 15.5093 13.072 15.5039 13.081C15.4985 13.0901 15.4909 13.0976 15.4818 13.103C14.9831 13.3937 14.4609 13.6421 13.9206 13.8455C13.912 13.8486 13.9042 13.8536 13.8977 13.8601C13.8912 13.8666 13.8862 13.8744 13.8831 13.883C13.8802 13.8914 13.8791 13.9002 13.8797 13.909C13.8804 13.9178 13.8828 13.9264 13.8869 13.9343C14.1869 14.5155 14.5306 15.0705 14.9081 15.5955C14.9157 15.6064 14.9266 15.6146 14.9392 15.6189C14.9518 15.6231 14.9654 15.6233 14.9781 15.6193C16.7766 15.0681 18.4679 14.2141 19.9793 13.0942C19.9869 13.089 19.9932 13.0821 19.9977 13.0741C20.0023 13.0661 20.0049 13.0572 20.0055 13.048C20.423 8.73419 19.3068 4.98664 17.0481 1.66534C17.0458 1.65985 17.0424 1.65491 17.0381 1.65081C17.0338 1.64672 17.0287 1.64358 17.0231 1.64159ZM6.77569 10.7755C5.78945 10.7755 4.97821 9.87045 4.97821 8.76044C4.97821 7.64917 5.77445 6.74416 6.77569 6.74416C7.78443 6.74416 8.58817 7.65667 8.57317 8.76044C8.57317 9.87045 7.77693 10.7755 6.77569 10.7755ZM13.4206 10.7755C12.4356 10.7755 11.6231 9.87045 11.6231 8.76044C11.6231 7.64917 12.4194 6.74416 13.4206 6.74416C14.4294 6.74416 15.2343 7.65667 15.2181 8.76044C15.2181 9.87045 14.4294 10.7755 13.4206 10.7755Z" fill="var(--dark)"/>
</svg>
