<svg viewBox="0 0 22 19" fill="none" xmlns="http://www.w3.org/2000/svg">
<path d="M11.5368 12.3075L14.2218 15L11.5293 17.6925L12.5943 18.75L16.3443 15L12.5943 11.25L11.5368 12.3075ZM16.7868 12.3075L19.4718 15L16.7793 17.6925L17.8443 18.75L21.5943 15L17.8443 11.25L16.7868 12.3075Z" fill="var(--dark)"/>
<path d="M9.5918 14.25H2.0918V2.9325L10.6643 8.865C10.7898 8.9521 10.939 8.99877 11.0918 8.99877C11.2446 8.99877 11.3937 8.9521 11.5193 8.865L20.0918 2.9325V9.75H21.5918V2.25C21.5918 1.85218 21.4338 1.47064 21.1525 1.18934C20.8712 0.908035 20.4896 0.75 20.0918 0.75H2.0918C1.69397 0.75 1.31244 0.908035 1.03114 1.18934C0.749832 1.47064 0.591797 1.85218 0.591797 2.25V14.25C0.591797 14.6478 0.749832 15.0294 1.03114 15.3107C1.31244 15.592 1.69397 15.75 2.0918 15.75H9.5918V14.25ZM18.4418 2.25L11.0918 7.335L3.7418 2.25H18.4418Z" fill="var(--dark)"/>
</svg>
