<svg viewBox="0 0 21 20" fill="none" xmlns="http://www.w3.org/2000/svg">
<path d="M10.0918 0.248672C4.56742 0.248672 0.0917969 4.72805 0.0917969 10.2487C0.0917969 14.6693 2.9568 18.4162 6.92742 19.738C7.4293 19.8324 7.61055 19.523 7.61055 19.2555C7.61055 19.018 7.60492 18.3899 7.60117 17.5562C4.81805 18.1587 4.2318 16.2118 4.2318 16.2118C3.77617 15.0593 3.11867 14.7499 3.11867 14.7499C2.21367 14.1318 3.19055 14.1449 3.19055 14.1449C4.19305 14.213 4.72055 15.173 4.72055 15.173C5.61242 16.703 7.06055 16.2605 7.63367 16.003C7.72117 15.3587 7.9818 14.9155 8.26555 14.6687C6.04555 14.418 3.71117 13.5587 3.71117 9.7268C3.71117 8.63242 4.09867 7.74117 4.7393 7.04117C4.62867 6.79055 4.28992 5.7718 4.82742 4.3943C4.82742 4.3943 5.6643 4.12742 7.57742 5.41992C8.39236 5.19827 9.23288 5.08459 10.0774 5.0818C10.9274 5.08742 11.7768 5.19867 12.5774 5.41992C14.4793 4.12742 15.3155 4.3943 15.3155 4.3943C15.8524 5.7718 15.5137 6.78992 15.4162 7.04117C16.0505 7.74117 16.438 8.63305 16.438 9.7268C16.438 13.5674 14.1005 14.4143 11.878 14.6587C12.2255 14.958 12.5512 15.5737 12.5512 16.508C12.5512 17.8455 12.5387 18.923 12.5387 19.2487C12.5387 19.5087 12.7137 19.8212 13.2287 19.7205C17.2287 18.4124 20.0905 14.6624 20.0905 10.248C20.0905 4.72742 15.6149 0.248047 10.0905 0.248047L10.0918 0.248672Z" fill="var(--dark)"/>
</svg>
